# Blender 4.0.2
# www.blender.org
mtllib VanGogh.mtl
o Cube
v -1.651433 -0.000315 2.234850
v -1.651433 0.166649 2.234850
v -1.651433 -0.000315 -2.234850
v -1.651433 0.166649 -2.234850
v 1.651433 -0.000315 2.234850
v 1.651433 0.166649 2.234850
v 1.651433 -0.000315 -2.234850
v 1.651433 0.166649 -2.234850
v -1.820876 -0.000315 -2.464154
v -1.820876 -0.000315 2.464154
v -1.820876 0.166649 2.464154
v -1.820876 0.166649 -2.464154
v 1.820876 -0.000315 -2.464154
v 1.820876 0.166649 -2.464154
v 1.820876 -0.000315 2.464154
v 1.820876 0.166649 2.464154
vn -1.0000 -0.0000 -0.0000
vn -0.0000 -0.0000 -1.0000
vn 1.0000 -0.0000 -0.0000
vn -0.0000 -0.0000 1.0000
vn -0.0000 -1.0000 -0.0000
vn -0.0000 1.0000 -0.0000
vt 0.434777 0.413925
vt 0.434777 0.554530
vt 0.575382 0.554530
vt 0.575382 0.413925
vt 0.005054 0.984253
vt 1.005105 0.984253
vt 1.005105 -0.015798
vt 0.005054 -0.015798
vt 0.441319 0.420467
vt 0.441319 0.547988
vt 0.568840 0.547988
vt 0.568840 0.420467
s 0
usemtl Frame
f 10/1/1 11/1/1 12/2/1 9/2/1
f 9/2/2 12/2/2 14/3/2 13/3/2
f 13/3/3 14/3/3 16/4/3 15/4/3
f 15/4/4 16/4/4 11/1/4 10/1/4
f 2/9/3 1/9/3 3/10/3 4/10/3
f 3/10/5 1/9/5 10/1/5 9/2/5
f 2/9/6 4/10/6 12/2/6 11/1/6
f 7/11/5 3/10/5 9/2/5 13/3/5
f 4/10/6 8/11/6 14/3/6 12/2/6
f 5/12/5 7/11/5 13/3/5 15/4/5
f 8/11/6 6/12/6 16/4/6 14/3/6
f 1/9/5 5/12/5 15/4/5 10/1/5
f 6/12/6 2/9/6 11/1/6 16/4/6
f 4/10/4 3/10/4 7/11/4 8/11/4
f 5/12/1 6/12/1 8/11/1 7/11/1
f 1/9/2 2/9/2 6/12/2 5/12/2
usemtl image
f 3/5/5 7/6/5 5/7/5 1/8/5
